<?xml version="1.0" encoding="UTF-8" standalone="no"?>
<!DOCTYPE svg PUBLIC "-//W3C//DTD SVG 1.1//EN"
 "http://www.w3.org/Graphics/SVG/1.1/DTD/svg11.dtd">
<!-- Generated by graphviz version 2.43.0 (0)
 -->
<!-- Title: %3 Pages: 1 -->
<svg width="1814pt" height="1124pt"
 viewBox="0.00 0.00 1814.00 1124.00" xmlns="http://www.w3.org/2000/svg" xmlns:xlink="http://www.w3.org/1999/xlink">
<g id="graph0" class="graph" transform="scale(1 1) rotate(0) translate(4 1120)">
<title>%3</title>
<polygon fill="white" stroke="transparent" points="-4,4 -4,-1120 1810,-1120 1810,4 -4,4"/>
<!-- cd -->
<g id="node1" class="node">
<title>cd</title>
<ellipse fill="none" stroke="black" cx="1592" cy="-1098" rx="27" ry="18"/>
<text text-anchor="middle" x="1592" y="-1094.3" font-family="Times,serif" font-size="14.00">cd</text>
</g>
<!-- jx -->
<g id="node2" class="node">
<title>jx</title>
<ellipse fill="none" stroke="black" cx="1592" cy="-1026" rx="27" ry="18"/>
<text text-anchor="middle" x="1592" y="-1022.3" font-family="Times,serif" font-size="14.00">jx</text>
</g>
<!-- cd&#45;&gt;jx -->
<g id="edge1" class="edge">
<title>cd&#45;&gt;jx</title>
<path fill="none" stroke="black" d="M1592,-1079.7C1592,-1071.98 1592,-1062.71 1592,-1054.11"/>
<polygon fill="black" stroke="black" points="1595.5,-1054.1 1592,-1044.1 1588.5,-1054.1 1595.5,-1054.1"/>
</g>
<!-- gh -->
<g id="node3" class="node">
<title>gh</title>
<ellipse fill="none" stroke="black" cx="1534" cy="-954" rx="27" ry="18"/>
<text text-anchor="middle" x="1534" y="-950.3" font-family="Times,serif" font-size="14.00">gh</text>
</g>
<!-- cd&#45;&gt;gh -->
<g id="edge2" class="edge">
<title>cd&#45;&gt;gh</title>
<path fill="none" stroke="black" d="M1579.4,-1081.64C1571.65,-1071.5 1562.07,-1057.61 1556,-1044 1547.11,-1024.07 1541.43,-999.96 1538.08,-981.87"/>
<polygon fill="black" stroke="black" points="1541.52,-981.24 1536.36,-971.98 1534.62,-982.44 1541.52,-981.24"/>
</g>
<!-- jx&#45;&gt;gh -->
<g id="edge88" class="edge">
<title>jx&#45;&gt;gh</title>
<path fill="none" stroke="black" d="M1579.41,-1009.81C1571.74,-1000.55 1561.77,-988.52 1553.14,-978.09"/>
<polygon fill="black" stroke="black" points="1555.64,-975.63 1546.56,-970.16 1550.25,-980.09 1555.64,-975.63"/>
</g>
<!-- lk -->
<g id="node56" class="node">
<title>lk</title>
<ellipse fill="none" stroke="black" cx="1779" cy="-882" rx="27" ry="18"/>
<text text-anchor="middle" x="1779" y="-878.3" font-family="Times,serif" font-size="14.00">lk</text>
</g>
<!-- jx&#45;&gt;lk -->
<g id="edge89" class="edge">
<title>jx&#45;&gt;lk</title>
<path fill="none" stroke="black" d="M1609.26,-1011.9C1642.38,-986.75 1714.99,-931.61 1753.63,-902.26"/>
<polygon fill="black" stroke="black" points="1755.94,-904.91 1761.78,-896.07 1751.7,-899.33 1755.94,-904.91"/>
</g>
<!-- tv -->
<g id="node10" class="node">
<title>tv</title>
<ellipse fill="none" stroke="black" cx="1441" cy="-882" rx="27" ry="18"/>
<text text-anchor="middle" x="1441" y="-878.3" font-family="Times,serif" font-size="14.00">tv</text>
</g>
<!-- gh&#45;&gt;tv -->
<g id="edge79" class="edge">
<title>gh&#45;&gt;tv</title>
<path fill="none" stroke="black" d="M1513.94,-941.75C1498.82,-931.64 1478.36,-916.53 1462.86,-904.16"/>
<polygon fill="black" stroke="black" points="1464.79,-901.22 1454.82,-897.63 1460.37,-906.65 1464.79,-901.22"/>
</g>
<!-- bh -->
<g id="node17" class="node">
<title>bh</title>
<ellipse fill="none" stroke="black" cx="881" cy="-594" rx="27" ry="18"/>
<text text-anchor="middle" x="881" y="-590.3" font-family="Times,serif" font-size="14.00">bh</text>
</g>
<!-- gh&#45;&gt;bh -->
<g id="edge80" class="edge">
<title>gh&#45;&gt;bh</title>
<path fill="none" stroke="black" d="M1506.6,-953.46C1376.12,-954.96 824,-952.89 824,-811 824,-811 824,-811 824,-737 824,-696.55 826.65,-684.99 843,-648 847.72,-637.33 854.8,-626.66 861.57,-617.72"/>
<polygon fill="black" stroke="black" points="864.42,-619.75 867.88,-609.74 858.93,-615.41 864.42,-619.75"/>
</g>
<!-- sz -->
<g id="node43" class="node">
<title>sz</title>
<ellipse fill="none" stroke="black" cx="1517" cy="-738" rx="27" ry="18"/>
<text text-anchor="middle" x="1517" y="-734.3" font-family="Times,serif" font-size="14.00">sz</text>
</g>
<!-- gh&#45;&gt;sz -->
<g id="edge81" class="edge">
<title>gh&#45;&gt;sz</title>
<path fill="none" stroke="black" d="M1532.64,-935.85C1529.7,-898.83 1522.73,-811.18 1519.18,-766.39"/>
<polygon fill="black" stroke="black" points="1522.65,-765.92 1518.37,-756.23 1515.67,-766.48 1522.65,-765.92"/>
</g>
<!-- vx -->
<g id="node44" class="node">
<title>vx</title>
<ellipse fill="none" stroke="black" cx="1572" cy="-666" rx="27" ry="18"/>
<text text-anchor="middle" x="1572" y="-662.3" font-family="Times,serif" font-size="14.00">vx</text>
</g>
<!-- gh&#45;&gt;vx -->
<g id="edge82" class="edge">
<title>gh&#45;&gt;vx</title>
<path fill="none" stroke="black" d="M1537.11,-935.84C1538.94,-925.48 1541.23,-912 1543,-900 1553.94,-825.64 1564.16,-737.53 1569.03,-694.05"/>
<polygon fill="black" stroke="black" points="1572.52,-694.32 1570.15,-683.99 1565.56,-693.54 1572.52,-694.32"/>
</g>
<!-- gh&#45;&gt;lk -->
<g id="edge83" class="edge">
<title>gh&#45;&gt;lk</title>
<path fill="none" stroke="black" d="M1559.45,-947.58C1598.39,-939.03 1674.86,-921.18 1738,-900 1741.14,-898.95 1744.38,-897.77 1747.61,-896.53"/>
<polygon fill="black" stroke="black" points="1749.1,-899.71 1757.08,-892.75 1746.5,-893.21 1749.1,-899.71"/>
</g>
<!-- bk -->
<g id="node4" class="node">
<title>bk</title>
<ellipse fill="none" stroke="black" cx="359" cy="-90" rx="27" ry="18"/>
<text text-anchor="middle" x="359" y="-86.3" font-family="Times,serif" font-size="14.00">bk</text>
</g>
<!-- jp -->
<g id="node5" class="node">
<title>jp</title>
<ellipse fill="none" stroke="black" cx="387" cy="-18" rx="27" ry="18"/>
<text text-anchor="middle" x="387" y="-14.3" font-family="Times,serif" font-size="14.00">jp</text>
</g>
<!-- bk&#45;&gt;jp -->
<g id="edge3" class="edge">
<title>bk&#45;&gt;jp</title>
<path fill="none" stroke="black" d="M365.64,-72.41C368.91,-64.22 372.94,-54.14 376.62,-44.95"/>
<polygon fill="black" stroke="black" points="379.95,-46.05 380.41,-35.47 373.45,-43.45 379.95,-46.05"/>
</g>
<!-- cn -->
<g id="node6" class="node">
<title>cn</title>
<ellipse fill="none" stroke="black" cx="247" cy="-810" rx="27" ry="18"/>
<text text-anchor="middle" x="247" y="-806.3" font-family="Times,serif" font-size="14.00">cn</text>
</g>
<!-- bk&#45;&gt;cn -->
<g id="edge4" class="edge">
<title>bk&#45;&gt;cn</title>
<path fill="none" stroke="black" d="M362.36,-107.97C367.31,-134.52 376,-187.56 376,-233 376,-667 376,-667 376,-667 376,-707.45 381.99,-724.2 357,-756 338.47,-779.59 306.81,-793.29 282.21,-800.83"/>
<polygon fill="black" stroke="black" points="281.14,-797.49 272.49,-803.61 283.07,-804.23 281.14,-797.49"/>
</g>
<!-- jp&#45;&gt;cn -->
<g id="edge55" class="edge">
<title>jp&#45;&gt;cn</title>
<path fill="none" stroke="black" d="M392.33,-35.85C400.2,-62.25 414,-115.08 414,-161 414,-667 414,-667 414,-667 414,-709.34 409.73,-725.85 380,-756 353.85,-782.52 312.75,-796.15 283.16,-802.9"/>
<polygon fill="black" stroke="black" points="282.27,-799.51 273.22,-805.01 283.72,-806.36 282.27,-799.51"/>
</g>
<!-- cx -->
<g id="node24" class="node">
<title>cx</title>
<ellipse fill="none" stroke="black" cx="280" cy="-882" rx="27" ry="18"/>
<text text-anchor="middle" x="280" y="-878.3" font-family="Times,serif" font-size="14.00">cx</text>
</g>
<!-- cn&#45;&gt;cx -->
<g id="edge38" class="edge">
<title>cn&#45;&gt;cx</title>
<path fill="none" stroke="black" d="M259.94,-826.36C264.83,-834.62 270.04,-845.06 274.11,-854.58"/>
<polygon fill="black" stroke="black" points="270.93,-856.06 277.89,-864.05 277.44,-853.47 270.93,-856.06"/>
</g>
<!-- jd -->
<g id="node27" class="node">
<title>jd</title>
<ellipse fill="none" stroke="black" cx="74" cy="-234" rx="27" ry="18"/>
<text text-anchor="middle" x="74" y="-230.3" font-family="Times,serif" font-size="14.00">jd</text>
</g>
<!-- cn&#45;&gt;jd -->
<g id="edge39" class="edge">
<title>cn&#45;&gt;jd</title>
<path fill="none" stroke="black" d="M220.44,-805.95C186.59,-800.87 127.81,-787.84 89,-756 53.75,-727.08 38,-712.59 38,-667 38,-667 38,-667 38,-377 38,-335.55 52.59,-289.32 63.2,-261.2"/>
<polygon fill="black" stroke="black" points="66.53,-262.29 66.89,-251.7 60,-259.75 66.53,-262.29"/>
</g>
<!-- xd -->
<g id="node29" class="node">
<title>xd</title>
<ellipse fill="none" stroke="black" cx="321" cy="-738" rx="27" ry="18"/>
<text text-anchor="middle" x="321" y="-734.3" font-family="Times,serif" font-size="14.00">xd</text>
</g>
<!-- cn&#45;&gt;xd -->
<g id="edge40" class="edge">
<title>cn&#45;&gt;xd</title>
<path fill="none" stroke="black" d="M261.98,-794.83C272.51,-784.87 286.78,-771.37 298.66,-760.14"/>
<polygon fill="black" stroke="black" points="301.19,-762.56 306.05,-753.14 296.38,-757.47 301.19,-762.56"/>
</g>
<!-- sh -->
<g id="node35" class="node">
<title>sh</title>
<ellipse fill="none" stroke="black" cx="752" cy="-594" rx="27" ry="18"/>
<text text-anchor="middle" x="752" y="-590.3" font-family="Times,serif" font-size="14.00">sh</text>
</g>
<!-- cn&#45;&gt;sh -->
<g id="edge41" class="edge">
<title>cn&#45;&gt;sh</title>
<path fill="none" stroke="black" d="M274,-807.67C349.22,-803.57 559.54,-789.34 619,-756 676.05,-724.02 718.73,-657.17 738.97,-620.47"/>
<polygon fill="black" stroke="black" points="742.2,-621.87 743.86,-611.4 736.03,-618.55 742.2,-621.87"/>
</g>
<!-- tc -->
<g id="node36" class="node">
<title>tc</title>
<ellipse fill="none" stroke="black" cx="169" cy="-522" rx="27" ry="18"/>
<text text-anchor="middle" x="169" y="-518.3" font-family="Times,serif" font-size="14.00">tc</text>
</g>
<!-- cn&#45;&gt;tc -->
<g id="edge42" class="edge">
<title>cn&#45;&gt;tc</title>
<path fill="none" stroke="black" d="M235.73,-793.38C228.73,-783.14 219.97,-769.24 214,-756 186.55,-695.11 181.4,-677.98 171,-612 167.77,-591.52 167.38,-568.06 167.73,-550.37"/>
<polygon fill="black" stroke="black" points="171.24,-550.28 168.03,-540.18 164.24,-550.08 171.24,-550.28"/>
</g>
<!-- px -->
<g id="node7" class="node">
<title>px</title>
<ellipse fill="none" stroke="black" cx="1122" cy="-378" rx="27" ry="18"/>
<text text-anchor="middle" x="1122" y="-374.3" font-family="Times,serif" font-size="14.00">px</text>
</g>
<!-- xc -->
<g id="node8" class="node">
<title>xc</title>
<ellipse fill="none" stroke="black" cx="1065" cy="-738" rx="27" ry="18"/>
<text text-anchor="middle" x="1065" y="-734.3" font-family="Times,serif" font-size="14.00">xc</text>
</g>
<!-- px&#45;&gt;xc -->
<g id="edge5" class="edge">
<title>px&#45;&gt;xc</title>
<path fill="none" stroke="black" d="M1110.02,-394.66C1102.51,-404.92 1092.97,-418.83 1086,-432 1053.8,-492.84 1041.89,-508.39 1029,-576 1019.85,-623.98 1038.87,-679.49 1052.58,-711.2"/>
<polygon fill="black" stroke="black" points="1049.52,-712.92 1056.81,-720.62 1055.91,-710.06 1049.52,-712.92"/>
</g>
<!-- hg -->
<g id="node9" class="node">
<title>hg</title>
<ellipse fill="none" stroke="black" cx="1141" cy="-306" rx="27" ry="18"/>
<text text-anchor="middle" x="1141" y="-302.3" font-family="Times,serif" font-size="14.00">hg</text>
</g>
<!-- px&#45;&gt;hg -->
<g id="edge6" class="edge">
<title>px&#45;&gt;hg</title>
<path fill="none" stroke="black" d="M1126.6,-360.05C1128.75,-352.14 1131.35,-342.54 1133.76,-333.69"/>
<polygon fill="black" stroke="black" points="1137.2,-334.36 1136.44,-323.79 1130.45,-332.52 1137.2,-334.36"/>
</g>
<!-- xc&#45;&gt;hg -->
<g id="edge9" class="edge">
<title>xc&#45;&gt;hg</title>
<path fill="none" stroke="black" d="M1086.05,-726.58C1123.08,-706.58 1196,-659.06 1196,-595 1196,-595 1196,-595 1196,-449 1196,-405.3 1173.07,-358.82 1156.82,-331.38"/>
<polygon fill="black" stroke="black" points="1159.8,-329.55 1151.6,-322.84 1153.82,-333.2 1159.8,-329.55"/>
</g>
<!-- bm -->
<g id="node12" class="node">
<title>bm</title>
<ellipse fill="none" stroke="black" cx="1065" cy="-594" rx="27" ry="18"/>
<text text-anchor="middle" x="1065" y="-590.3" font-family="Times,serif" font-size="14.00">bm</text>
</g>
<!-- xc&#45;&gt;bm -->
<g id="edge10" class="edge">
<title>xc&#45;&gt;bm</title>
<path fill="none" stroke="black" d="M1065,-719.87C1065,-695.67 1065,-651.21 1065,-622.39"/>
<polygon fill="black" stroke="black" points="1068.5,-622.19 1065,-612.19 1061.5,-622.19 1068.5,-622.19"/>
</g>
<!-- zq -->
<g id="node13" class="node">
<title>zq</title>
<ellipse fill="none" stroke="black" cx="1033" cy="-882" rx="27" ry="18"/>
<text text-anchor="middle" x="1033" y="-878.3" font-family="Times,serif" font-size="14.00">zq</text>
</g>
<!-- xc&#45;&gt;zq -->
<g id="edge11" class="edge">
<title>xc&#45;&gt;zq</title>
<path fill="none" stroke="black" d="M1065.69,-756.43C1062.7,-781.08 1052.75,-826.33 1044.23,-854.98"/>
<polygon fill="black" stroke="black" points="1040.83,-854.12 1041.16,-864.71 1047.5,-856.22 1040.83,-854.12"/>
</g>
<!-- jf -->
<g id="node14" class="node">
<title>jf</title>
<ellipse fill="none" stroke="black" cx="993" cy="-522" rx="27" ry="18"/>
<text text-anchor="middle" x="993" y="-518.3" font-family="Times,serif" font-size="14.00">jf</text>
</g>
<!-- xc&#45;&gt;jf -->
<g id="edge12" class="edge">
<title>xc&#45;&gt;jf</title>
<path fill="none" stroke="black" d="M1043.23,-726.96C1026.98,-718.16 1005.93,-703.69 996,-684 974.41,-641.21 980.39,-583.52 986.7,-550.08"/>
<polygon fill="black" stroke="black" points="990.16,-550.63 988.72,-540.13 983.3,-549.23 990.16,-550.63"/>
</g>
<!-- bd -->
<g id="node15" class="node">
<title>bd</title>
<ellipse fill="none" stroke="black" cx="1122" cy="-450" rx="27" ry="18"/>
<text text-anchor="middle" x="1122" y="-446.3" font-family="Times,serif" font-size="14.00">bd</text>
</g>
<!-- xc&#45;&gt;bd -->
<g id="edge13" class="edge">
<title>xc&#45;&gt;bd</title>
<path fill="none" stroke="black" d="M1077.96,-722.19C1086.21,-712.06 1096.53,-697.97 1103,-684 1130.71,-624.13 1130.94,-605.48 1139,-540 1140.95,-524.12 1141.47,-519.81 1139,-504 1137.62,-495.18 1135.02,-485.82 1132.26,-477.46"/>
<polygon fill="black" stroke="black" points="1135.51,-476.13 1128.89,-467.86 1128.9,-478.45 1135.51,-476.13"/>
</g>
<!-- hn -->
<g id="node16" class="node">
<title>hn</title>
<ellipse fill="none" stroke="black" cx="879" cy="-666" rx="27" ry="18"/>
<text text-anchor="middle" x="879" y="-662.3" font-family="Times,serif" font-size="14.00">hn</text>
</g>
<!-- xc&#45;&gt;hn -->
<g id="edge14" class="edge">
<title>xc&#45;&gt;hn</title>
<path fill="none" stroke="black" d="M1041.53,-728.77C1012.76,-718.6 962.58,-700.6 920,-684 917.08,-682.86 914.05,-681.65 911.02,-680.43"/>
<polygon fill="black" stroke="black" points="912.07,-677.08 901.49,-676.53 909.41,-683.55 912.07,-677.08"/>
</g>
<!-- bq -->
<g id="node46" class="node">
<title>bq</title>
<ellipse fill="none" stroke="black" cx="1141" cy="-234" rx="27" ry="18"/>
<text text-anchor="middle" x="1141" y="-230.3" font-family="Times,serif" font-size="14.00">bq</text>
</g>
<!-- hg&#45;&gt;bq -->
<g id="edge65" class="edge">
<title>hg&#45;&gt;bq</title>
<path fill="none" stroke="black" d="M1141,-287.7C1141,-279.98 1141,-270.71 1141,-262.11"/>
<polygon fill="black" stroke="black" points="1144.5,-262.1 1141,-252.1 1137.5,-262.1 1144.5,-262.1"/>
</g>
<!-- tv&#45;&gt;gh -->
<g id="edge7" class="edge">
<title>tv&#45;&gt;gh</title>
<path fill="none" stroke="black" d="M1461.24,-894.37C1476.26,-904.43 1496.5,-919.37 1511.91,-931.65"/>
<polygon fill="black" stroke="black" points="1509.94,-934.57 1519.91,-938.15 1514.36,-929.13 1509.94,-934.57"/>
</g>
<!-- xl -->
<g id="node11" class="node">
<title>xl</title>
<ellipse fill="none" stroke="black" cx="1479" cy="-810" rx="27" ry="18"/>
<text text-anchor="middle" x="1479" y="-806.3" font-family="Times,serif" font-size="14.00">xl</text>
</g>
<!-- tv&#45;&gt;xl -->
<g id="edge8" class="edge">
<title>tv&#45;&gt;xl</title>
<path fill="none" stroke="black" d="M1449.81,-864.76C1454.42,-856.28 1460.16,-845.71 1465.32,-836.2"/>
<polygon fill="black" stroke="black" points="1468.54,-837.61 1470.23,-827.15 1462.39,-834.27 1468.54,-837.61"/>
</g>
<!-- xl&#45;&gt;gh -->
<g id="edge51" class="edge">
<title>xl&#45;&gt;gh</title>
<path fill="none" stroke="black" d="M1485.55,-827.9C1495.05,-852.44 1512.75,-898.15 1523.93,-926.99"/>
<polygon fill="black" stroke="black" points="1520.71,-928.37 1527.58,-936.43 1527.24,-925.84 1520.71,-928.37"/>
</g>
<!-- xl&#45;&gt;sz -->
<g id="edge52" class="edge">
<title>xl&#45;&gt;sz</title>
<path fill="none" stroke="black" d="M1487.81,-792.76C1492.42,-784.28 1498.16,-773.71 1503.32,-764.2"/>
<polygon fill="black" stroke="black" points="1506.54,-765.61 1508.23,-755.15 1500.39,-762.27 1506.54,-765.61"/>
</g>
<!-- xr -->
<g id="node32" class="node">
<title>xr</title>
<ellipse fill="none" stroke="black" cx="1103" cy="-522" rx="27" ry="18"/>
<text text-anchor="middle" x="1103" y="-518.3" font-family="Times,serif" font-size="14.00">xr</text>
</g>
<!-- bm&#45;&gt;xr -->
<g id="edge86" class="edge">
<title>bm&#45;&gt;xr</title>
<path fill="none" stroke="black" d="M1073.81,-576.76C1078.42,-568.28 1084.16,-557.71 1089.32,-548.2"/>
<polygon fill="black" stroke="black" points="1092.54,-549.61 1094.23,-539.15 1086.39,-546.27 1092.54,-549.61"/>
</g>
<!-- zq&#45;&gt;xc -->
<g id="edge36" class="edge">
<title>zq&#45;&gt;xc</title>
<path fill="none" stroke="black" d="M1032.28,-863.87C1035.22,-839.3 1045.2,-793.85 1053.75,-765.08"/>
<polygon fill="black" stroke="black" points="1057.17,-765.9 1056.83,-755.31 1050.49,-763.8 1057.17,-765.9"/>
</g>
<!-- kg -->
<g id="node34" class="node">
<title>kg</title>
<ellipse fill="none" stroke="black" cx="1001" cy="-810" rx="27" ry="18"/>
<text text-anchor="middle" x="1001" y="-806.3" font-family="Times,serif" font-size="14.00">kg</text>
</g>
<!-- zq&#45;&gt;kg -->
<g id="edge37" class="edge">
<title>zq&#45;&gt;kg</title>
<path fill="none" stroke="black" d="M1025.42,-864.41C1021.63,-856.13 1016.97,-845.92 1012.73,-836.66"/>
<polygon fill="black" stroke="black" points="1015.87,-835.11 1008.53,-827.47 1009.5,-838.02 1015.87,-835.11"/>
</g>
<!-- mf -->
<g id="node18" class="node">
<title>mf</title>
<ellipse fill="none" stroke="black" cx="919" cy="-450" rx="27" ry="18"/>
<text text-anchor="middle" x="919" y="-446.3" font-family="Times,serif" font-size="14.00">mf</text>
</g>
<!-- jf&#45;&gt;mf -->
<g id="edge27" class="edge">
<title>jf&#45;&gt;mf</title>
<path fill="none" stroke="black" d="M978.02,-506.83C967.49,-496.87 953.22,-483.37 941.34,-472.14"/>
<polygon fill="black" stroke="black" points="943.62,-469.47 933.95,-465.14 938.81,-474.56 943.62,-469.47"/>
</g>
<!-- bd&#45;&gt;px -->
<g id="edge15" class="edge">
<title>bd&#45;&gt;px</title>
<path fill="none" stroke="black" d="M1122,-431.7C1122,-423.98 1122,-414.71 1122,-406.11"/>
<polygon fill="black" stroke="black" points="1125.5,-406.1 1122,-396.1 1118.5,-406.1 1125.5,-406.1"/>
</g>
<!-- hn&#45;&gt;bm -->
<g id="edge32" class="edge">
<title>hn&#45;&gt;bm</title>
<path fill="none" stroke="black" d="M902.18,-656.28C935.08,-643.9 995.44,-621.18 1032.71,-607.15"/>
<polygon fill="black" stroke="black" points="1033.98,-610.41 1042.11,-603.61 1031.52,-603.86 1033.98,-610.41"/>
</g>
<!-- bh&#45;&gt;mf -->
<g id="edge16" class="edge">
<title>bh&#45;&gt;mf</title>
<path fill="none" stroke="black" d="M893.35,-577.8C900.78,-567.72 909.62,-553.85 914,-540 920.33,-519.99 921.36,-496.2 920.92,-478.26"/>
<polygon fill="black" stroke="black" points="924.42,-478.03 920.51,-468.18 917.42,-478.32 924.42,-478.03"/>
</g>
<!-- rx -->
<g id="node33" class="node">
<title>rx</title>
<ellipse fill="none" stroke="black" cx="919" cy="-378" rx="27" ry="18"/>
<text text-anchor="middle" x="919" y="-374.3" font-family="Times,serif" font-size="14.00">rx</text>
</g>
<!-- mf&#45;&gt;rx -->
<g id="edge35" class="edge">
<title>mf&#45;&gt;rx</title>
<path fill="none" stroke="black" d="M919,-431.7C919,-423.98 919,-414.71 919,-406.11"/>
<polygon fill="black" stroke="black" points="922.5,-406.1 919,-396.1 915.5,-406.1 922.5,-406.1"/>
</g>
<!-- dx -->
<g id="node19" class="node">
<title>dx</title>
<ellipse fill="none" stroke="black" cx="131" cy="-450" rx="27" ry="18"/>
<text text-anchor="middle" x="131" y="-446.3" font-family="Times,serif" font-size="14.00">dx</text>
</g>
<!-- dx&#45;&gt;cn -->
<g id="edge17" class="edge">
<title>dx&#45;&gt;cn</title>
<path fill="none" stroke="black" d="M127.64,-467.97C122.69,-494.52 114,-547.56 114,-593 114,-667 114,-667 114,-667 114,-726.73 177.45,-771.69 216.7,-793.79"/>
<polygon fill="black" stroke="black" points="215.18,-796.95 225.63,-798.66 218.53,-790.8 215.18,-796.95"/>
</g>
<!-- rb -->
<g id="node20" class="node">
<title>rb</title>
<ellipse fill="none" stroke="black" cx="112" cy="-378" rx="27" ry="18"/>
<text text-anchor="middle" x="112" y="-374.3" font-family="Times,serif" font-size="14.00">rb</text>
</g>
<!-- dx&#45;&gt;rb -->
<g id="edge18" class="edge">
<title>dx&#45;&gt;rb</title>
<path fill="none" stroke="black" d="M126.4,-432.05C124.25,-424.14 121.65,-414.54 119.24,-405.69"/>
<polygon fill="black" stroke="black" points="122.55,-404.52 116.56,-395.79 115.8,-406.36 122.55,-404.52"/>
</g>
<!-- rb&#45;&gt;cn -->
<g id="edge25" class="edge">
<title>rb&#45;&gt;cn</title>
<path fill="none" stroke="black" d="M104.89,-395.7C94.4,-421.89 76,-474.46 76,-521 76,-667 76,-667 76,-667 76,-713.27 95.38,-725.31 130,-756 153.76,-777.06 187.28,-791.09 212.36,-799.39"/>
<polygon fill="black" stroke="black" points="211.6,-802.83 222.19,-802.5 213.71,-796.15 211.6,-802.83"/>
</g>
<!-- qr -->
<g id="node26" class="node">
<title>qr</title>
<ellipse fill="none" stroke="black" cx="112" cy="-306" rx="27" ry="18"/>
<text text-anchor="middle" x="112" y="-302.3" font-family="Times,serif" font-size="14.00">qr</text>
</g>
<!-- rb&#45;&gt;qr -->
<g id="edge26" class="edge">
<title>rb&#45;&gt;qr</title>
<path fill="none" stroke="black" d="M112,-359.7C112,-351.98 112,-342.71 112,-334.11"/>
<polygon fill="black" stroke="black" points="115.5,-334.1 112,-324.1 108.5,-334.1 115.5,-334.1"/>
</g>
<!-- vv -->
<g id="node21" class="node">
<title>vv</title>
<ellipse fill="none" stroke="black" cx="1648" cy="-666" rx="27" ry="18"/>
<text text-anchor="middle" x="1648" y="-662.3" font-family="Times,serif" font-size="14.00">vv</text>
</g>
<!-- vv&#45;&gt;gh -->
<g id="edge19" class="edge">
<title>vv&#45;&gt;gh</title>
<path fill="none" stroke="black" d="M1642.24,-683.89C1628.92,-722.58 1594.45,-820.44 1560,-900 1556.09,-909.02 1551.47,-918.72 1547.2,-927.33"/>
<polygon fill="black" stroke="black" points="1543.97,-925.97 1542.61,-936.48 1550.22,-929.11 1543.97,-925.97"/>
</g>
<!-- pp -->
<g id="node22" class="node">
<title>pp</title>
<ellipse fill="none" stroke="black" cx="1403" cy="-594" rx="27" ry="18"/>
<text text-anchor="middle" x="1403" y="-590.3" font-family="Times,serif" font-size="14.00">pp</text>
</g>
<!-- vv&#45;&gt;pp -->
<g id="edge20" class="edge">
<title>vv&#45;&gt;pp</title>
<path fill="none" stroke="black" d="M1626.22,-655.05C1620.37,-652.57 1614,-650.04 1608,-648 1549.6,-628.16 1479.69,-611.56 1438.45,-602.48"/>
<polygon fill="black" stroke="black" points="1439.12,-599.04 1428.6,-600.33 1437.63,-605.88 1439.12,-599.04"/>
</g>
<!-- pp&#45;&gt;gh -->
<g id="edge73" class="edge">
<title>pp&#45;&gt;gh</title>
<path fill="none" stroke="black" d="M1399.64,-611.97C1394.69,-638.52 1386,-691.56 1386,-737 1386,-811 1386,-811 1386,-811 1386,-851.45 1379.08,-868.95 1405,-900 1428.25,-927.85 1468.47,-941.25 1497.84,-947.58"/>
<polygon fill="black" stroke="black" points="1497.24,-951.03 1507.73,-949.54 1498.6,-944.17 1497.24,-951.03"/>
</g>
<!-- qs -->
<g id="node54" class="node">
<title>qs</title>
<ellipse fill="none" stroke="black" cx="1384" cy="-522" rx="27" ry="18"/>
<text text-anchor="middle" x="1384" y="-518.3" font-family="Times,serif" font-size="14.00">qs</text>
</g>
<!-- pp&#45;&gt;qs -->
<g id="edge74" class="edge">
<title>pp&#45;&gt;qs</title>
<path fill="none" stroke="black" d="M1398.4,-576.05C1396.25,-568.14 1393.65,-558.54 1391.24,-549.69"/>
<polygon fill="black" stroke="black" points="1394.55,-548.52 1388.56,-539.79 1387.8,-550.36 1394.55,-548.52"/>
</g>
<!-- broadcaster -->
<g id="node23" class="node">
<title>broadcaster</title>
<ellipse fill="none" stroke="black" cx="894" cy="-954" rx="66.09" ry="18"/>
<text text-anchor="middle" x="894" y="-950.3" font-family="Times,serif" font-size="14.00">broadcaster</text>
</g>
<!-- broadcaster&#45;&gt;tv -->
<g id="edge21" class="edge">
<title>broadcaster&#45;&gt;tv</title>
<path fill="none" stroke="black" d="M952.54,-945.51C1065.72,-931.02 1311.59,-899.56 1404.48,-887.67"/>
<polygon fill="black" stroke="black" points="1405.04,-891.13 1414.52,-886.39 1404.16,-884.19 1405.04,-891.13"/>
</g>
<!-- broadcaster&#45;&gt;zq -->
<g id="edge22" class="edge">
<title>broadcaster&#45;&gt;zq</title>
<path fill="none" stroke="black" d="M924.16,-937.81C947.46,-926.08 979.55,-909.92 1002.85,-898.18"/>
<polygon fill="black" stroke="black" points="1004.57,-901.23 1011.93,-893.61 1001.43,-894.98 1004.57,-901.23"/>
</g>
<!-- broadcaster&#45;&gt;cx -->
<g id="edge23" class="edge">
<title>broadcaster&#45;&gt;cx</title>
<path fill="none" stroke="black" d="M834.01,-946.16C707.96,-931.79 418.83,-898.83 316.62,-887.17"/>
<polygon fill="black" stroke="black" points="316.82,-883.67 306.48,-886.02 316.02,-890.63 316.82,-883.67"/>
</g>
<!-- rh -->
<g id="node25" class="node">
<title>rh</title>
<ellipse fill="none" stroke="black" cx="723" cy="-882" rx="27" ry="18"/>
<text text-anchor="middle" x="723" y="-878.3" font-family="Times,serif" font-size="14.00">rh</text>
</g>
<!-- broadcaster&#45;&gt;rh -->
<g id="edge24" class="edge">
<title>broadcaster&#45;&gt;rh</title>
<path fill="none" stroke="black" d="M858.98,-938.67C828.43,-926.16 784.49,-908.17 754.9,-896.06"/>
<polygon fill="black" stroke="black" points="756.03,-892.74 745.45,-892.19 753.38,-899.22 756.03,-892.74"/>
</g>
<!-- cx&#45;&gt;cn -->
<g id="edge29" class="edge">
<title>cx&#45;&gt;cn</title>
<path fill="none" stroke="black" d="M267.16,-865.81C262.27,-857.57 257.06,-847.15 252.97,-837.62"/>
<polygon fill="black" stroke="black" points="256.14,-836.11 249.18,-828.13 249.64,-838.71 256.14,-836.11"/>
</g>
<!-- cx&#45;&gt;xd -->
<g id="edge30" class="edge">
<title>cx&#45;&gt;xd</title>
<path fill="none" stroke="black" d="M284.86,-864.15C291.89,-839.81 304.96,-794.57 313.3,-765.67"/>
<polygon fill="black" stroke="black" points="316.73,-766.4 316.14,-755.82 310.01,-764.46 316.73,-766.4"/>
</g>
<!-- hz -->
<g id="node42" class="node">
<title>hz</title>
<ellipse fill="none" stroke="black" cx="638" cy="-594" rx="27" ry="18"/>
<text text-anchor="middle" x="638" y="-590.3" font-family="Times,serif" font-size="14.00">hz</text>
</g>
<!-- rh&#45;&gt;hz -->
<g id="edge77" class="edge">
<title>rh&#45;&gt;hz</title>
<path fill="none" stroke="black" d="M714.85,-864.8C696.61,-817.75 655.6,-680.68 641.89,-622.08"/>
<polygon fill="black" stroke="black" points="645.26,-621.09 639.66,-612.09 638.42,-622.61 645.26,-621.09"/>
</g>
<!-- mr -->
<g id="node55" class="node">
<title>mr</title>
<ellipse fill="none" stroke="black" cx="638" cy="-810" rx="27" ry="18"/>
<text text-anchor="middle" x="638" y="-806.3" font-family="Times,serif" font-size="14.00">mr</text>
</g>
<!-- rh&#45;&gt;mr -->
<g id="edge78" class="edge">
<title>rh&#45;&gt;mr</title>
<path fill="none" stroke="black" d="M706.61,-867.5C694.03,-857.14 676.46,-842.67 662.25,-830.97"/>
<polygon fill="black" stroke="black" points="664.28,-828.11 654.34,-824.46 659.83,-833.51 664.28,-828.11"/>
</g>
<!-- qr&#45;&gt;cn -->
<g id="edge56" class="edge">
<title>qr&#45;&gt;cn</title>
<path fill="none" stroke="black" d="M136.96,-313.2C188.1,-327.56 300,-368.22 300,-449 300,-595 300,-595 300,-595 300,-664.54 273.3,-743.16 257.81,-782.95"/>
<polygon fill="black" stroke="black" points="254.48,-781.84 254.04,-792.42 260.99,-784.43 254.48,-781.84"/>
</g>
<!-- qr&#45;&gt;jd -->
<g id="edge57" class="edge">
<title>qr&#45;&gt;jd</title>
<path fill="none" stroke="black" d="M103.19,-288.76C98.58,-280.28 92.84,-269.71 87.68,-260.2"/>
<polygon fill="black" stroke="black" points="90.61,-258.27 82.77,-251.15 84.46,-261.61 90.61,-258.27"/>
</g>
<!-- mm -->
<g id="node28" class="node">
<title>mm</title>
<ellipse fill="none" stroke="black" cx="74" cy="-162" rx="28.7" ry="18"/>
<text text-anchor="middle" x="74" y="-158.3" font-family="Times,serif" font-size="14.00">mm</text>
</g>
<!-- jd&#45;&gt;mm -->
<g id="edge28" class="edge">
<title>jd&#45;&gt;mm</title>
<path fill="none" stroke="black" d="M74,-215.7C74,-207.98 74,-198.71 74,-190.11"/>
<polygon fill="black" stroke="black" points="77.5,-190.1 74,-180.1 70.5,-190.1 77.5,-190.1"/>
</g>
<!-- mm&#45;&gt;bk -->
<g id="edge46" class="edge">
<title>mm&#45;&gt;bk</title>
<path fill="none" stroke="black" d="M100.3,-154.54C151.91,-141.86 266.43,-113.74 324.22,-99.54"/>
<polygon fill="black" stroke="black" points="325.11,-102.93 333.99,-97.14 323.44,-96.13 325.11,-102.93"/>
</g>
<!-- mm&#45;&gt;cn -->
<g id="edge47" class="edge">
<title>mm&#45;&gt;cn</title>
<path fill="none" stroke="black" d="M60.08,-177.84C38.65,-202.32 0,-253.57 0,-305 0,-667 0,-667 0,-667 0,-712.15 13.45,-728.15 49,-756 96.23,-793 167.13,-804.25 210.04,-807.62"/>
<polygon fill="black" stroke="black" points="209.84,-811.12 220.05,-808.31 210.31,-804.13 209.84,-811.12"/>
</g>
<!-- jk -->
<g id="node59" class="node">
<title>jk</title>
<ellipse fill="none" stroke="black" cx="245" cy="-666" rx="27" ry="18"/>
<text text-anchor="middle" x="245" y="-662.3" font-family="Times,serif" font-size="14.00">jk</text>
</g>
<!-- xd&#45;&gt;jk -->
<g id="edge98" class="edge">
<title>xd&#45;&gt;jk</title>
<path fill="none" stroke="black" d="M305.62,-722.83C294.8,-712.87 280.14,-699.37 267.95,-688.14"/>
<polygon fill="black" stroke="black" points="270.08,-685.34 260.36,-681.14 265.34,-690.49 270.08,-685.34"/>
</g>
<!-- zs -->
<g id="node30" class="node">
<title>zs</title>
<ellipse fill="none" stroke="black" cx="621" cy="-306" rx="27" ry="18"/>
<text text-anchor="middle" x="621" y="-302.3" font-family="Times,serif" font-size="14.00">zs</text>
</g>
<!-- cz -->
<g id="node31" class="node">
<title>cz</title>
<ellipse fill="none" stroke="black" cx="640" cy="-234" rx="27" ry="18"/>
<text text-anchor="middle" x="640" y="-230.3" font-family="Times,serif" font-size="14.00">cz</text>
</g>
<!-- zs&#45;&gt;cz -->
<g id="edge31" class="edge">
<title>zs&#45;&gt;cz</title>
<path fill="none" stroke="black" d="M625.6,-288.05C627.75,-280.14 630.35,-270.54 632.76,-261.69"/>
<polygon fill="black" stroke="black" points="636.2,-262.36 635.44,-251.79 629.45,-260.52 636.2,-262.36"/>
</g>
<!-- cz&#45;&gt;hz -->
<g id="edge106" class="edge">
<title>cz&#45;&gt;hz</title>
<path fill="none" stroke="black" d="M647.11,-251.7C657.6,-277.89 676,-330.46 676,-377 676,-451 676,-451 676,-451 676,-492.59 660.6,-538.78 649.4,-566.86"/>
<polygon fill="black" stroke="black" points="646.07,-565.76 645.51,-576.34 652.55,-568.42 646.07,-565.76"/>
</g>
<!-- dt -->
<g id="node52" class="node">
<title>dt</title>
<ellipse fill="none" stroke="black" cx="640" cy="-162" rx="27" ry="18"/>
<text text-anchor="middle" x="640" y="-158.3" font-family="Times,serif" font-size="14.00">dt</text>
</g>
<!-- cz&#45;&gt;dt -->
<g id="edge107" class="edge">
<title>cz&#45;&gt;dt</title>
<path fill="none" stroke="black" d="M640,-215.7C640,-207.98 640,-198.71 640,-190.11"/>
<polygon fill="black" stroke="black" points="643.5,-190.1 640,-180.1 636.5,-190.1 643.5,-190.1"/>
</g>
<!-- xr&#45;&gt;xc -->
<g id="edge33" class="edge">
<title>xr&#45;&gt;xc</title>
<path fill="none" stroke="black" d="M1103.92,-540.18C1104.57,-558.18 1104.78,-587.25 1101,-612 1095.67,-646.93 1083.41,-685.85 1074.68,-710.84"/>
<polygon fill="black" stroke="black" points="1071.36,-709.73 1071.3,-720.33 1077.95,-712.08 1071.36,-709.73"/>
</g>
<!-- xr&#45;&gt;bd -->
<g id="edge34" class="edge">
<title>xr&#45;&gt;bd</title>
<path fill="none" stroke="black" d="M1107.6,-504.05C1109.75,-496.14 1112.35,-486.54 1114.76,-477.69"/>
<polygon fill="black" stroke="black" points="1118.2,-478.36 1117.44,-467.79 1111.45,-476.52 1118.2,-478.36"/>
</g>
<!-- kg&#45;&gt;xc -->
<g id="edge101" class="edge">
<title>kg&#45;&gt;xc</title>
<path fill="none" stroke="black" d="M1014.57,-794.15C1023.31,-784.6 1034.83,-771.99 1044.66,-761.25"/>
<polygon fill="black" stroke="black" points="1047.28,-763.57 1051.45,-753.82 1042.12,-758.84 1047.28,-763.57"/>
</g>
<!-- kg&#45;&gt;hn -->
<g id="edge102" class="edge">
<title>kg&#45;&gt;hn</title>
<path fill="none" stroke="black" d="M988.17,-794.07C966.81,-769.21 923.81,-719.16 898.62,-689.84"/>
<polygon fill="black" stroke="black" points="901.19,-687.46 892.02,-682.16 895.88,-692.02 901.19,-687.46"/>
</g>
<!-- sh&#45;&gt;mf -->
<g id="edge60" class="edge">
<title>sh&#45;&gt;mf</title>
<path fill="none" stroke="black" d="M777.75,-588.48C806.36,-582.21 852.3,-568.31 881,-540 898.13,-523.1 907.99,-497.24 913.35,-477.75"/>
<polygon fill="black" stroke="black" points="916.77,-478.49 915.82,-467.94 909.98,-476.78 916.77,-478.49"/>
</g>
<!-- tc&#45;&gt;dx -->
<g id="edge95" class="edge">
<title>tc&#45;&gt;dx</title>
<path fill="none" stroke="black" d="M160.19,-504.76C155.58,-496.28 149.84,-485.71 144.68,-476.2"/>
<polygon fill="black" stroke="black" points="147.61,-474.27 139.77,-467.15 141.46,-477.61 147.61,-474.27"/>
</g>
<!-- cs -->
<g id="node37" class="node">
<title>cs</title>
<ellipse fill="none" stroke="black" cx="469" cy="-522" rx="27" ry="18"/>
<text text-anchor="middle" x="469" y="-518.3" font-family="Times,serif" font-size="14.00">cs</text>
</g>
<!-- xj -->
<g id="node38" class="node">
<title>xj</title>
<ellipse fill="none" stroke="black" cx="545" cy="-450" rx="27" ry="18"/>
<text text-anchor="middle" x="545" y="-446.3" font-family="Times,serif" font-size="14.00">xj</text>
</g>
<!-- cs&#45;&gt;xj -->
<g id="edge43" class="edge">
<title>cs&#45;&gt;xj</title>
<path fill="none" stroke="black" d="M484.38,-506.83C495.2,-496.87 509.86,-483.37 522.05,-472.14"/>
<polygon fill="black" stroke="black" points="524.66,-474.49 529.64,-465.14 519.92,-469.34 524.66,-474.49"/>
</g>
<!-- fz -->
<g id="node53" class="node">
<title>fz</title>
<ellipse fill="none" stroke="black" cx="583" cy="-378" rx="27" ry="18"/>
<text text-anchor="middle" x="583" y="-374.3" font-family="Times,serif" font-size="14.00">fz</text>
</g>
<!-- xj&#45;&gt;fz -->
<g id="edge68" class="edge">
<title>xj&#45;&gt;fz</title>
<path fill="none" stroke="black" d="M553.81,-432.76C558.42,-424.28 564.16,-413.71 569.32,-404.2"/>
<polygon fill="black" stroke="black" points="572.54,-405.61 574.23,-395.15 566.39,-402.27 572.54,-405.61"/>
</g>
<!-- fb -->
<g id="node39" class="node">
<title>fb</title>
<ellipse fill="none" stroke="black" cx="207" cy="-594" rx="27" ry="18"/>
<text text-anchor="middle" x="207" y="-590.3" font-family="Times,serif" font-size="14.00">fb</text>
</g>
<!-- fb&#45;&gt;cn -->
<g id="edge44" class="edge">
<title>fb&#45;&gt;cn</title>
<path fill="none" stroke="black" d="M206.01,-612.19C205.29,-630.2 205.04,-659.28 209,-684 214.61,-719.04 227.56,-757.93 236.78,-782.89"/>
<polygon fill="black" stroke="black" points="233.54,-784.24 240.34,-792.36 240.09,-781.77 233.54,-784.24"/>
</g>
<!-- fb&#45;&gt;tc -->
<g id="edge45" class="edge">
<title>fb&#45;&gt;tc</title>
<path fill="none" stroke="black" d="M198.19,-576.76C193.58,-568.28 187.84,-557.71 182.68,-548.2"/>
<polygon fill="black" stroke="black" points="185.61,-546.27 177.77,-539.15 179.46,-549.61 185.61,-546.27"/>
</g>
<!-- sq -->
<g id="node40" class="node">
<title>sq</title>
<ellipse fill="none" stroke="black" cx="697" cy="-90" rx="27" ry="18"/>
<text text-anchor="middle" x="697" y="-86.3" font-family="Times,serif" font-size="14.00">sq</text>
</g>
<!-- th -->
<g id="node41" class="node">
<title>th</title>
<ellipse fill="none" stroke="black" cx="724" cy="-18" rx="27" ry="18"/>
<text text-anchor="middle" x="724" y="-14.3" font-family="Times,serif" font-size="14.00">th</text>
</g>
<!-- sq&#45;&gt;th -->
<g id="edge48" class="edge">
<title>sq&#45;&gt;th</title>
<path fill="none" stroke="black" d="M703.4,-72.41C706.51,-64.34 710.33,-54.43 713.83,-45.35"/>
<polygon fill="black" stroke="black" points="717.13,-46.55 717.46,-35.96 710.6,-44.03 717.13,-46.55"/>
</g>
<!-- sq&#45;&gt;hz -->
<g id="edge49" class="edge">
<title>sq&#45;&gt;hz</title>
<path fill="none" stroke="black" d="M700.36,-107.97C705.31,-134.52 714,-187.56 714,-233 714,-451 714,-451 714,-451 714,-497.88 681.4,-544.26 658.91,-570.69"/>
<polygon fill="black" stroke="black" points="656.26,-568.4 652.3,-578.23 661.52,-573.02 656.26,-568.4"/>
</g>
<!-- th&#45;&gt;hz -->
<g id="edge84" class="edge">
<title>th&#45;&gt;hz</title>
<path fill="none" stroke="black" d="M729.53,-35.84C737.69,-62.21 752,-115.02 752,-161 752,-451 752,-451 752,-451 752,-505.85 699.64,-551.58 665.89,-575.35"/>
<polygon fill="black" stroke="black" points="663.62,-572.66 657.34,-581.19 667.57,-578.44 663.62,-572.66"/>
</g>
<!-- hz&#45;&gt;rh -->
<g id="edge90" class="edge">
<title>hz&#45;&gt;rh</title>
<path fill="none" stroke="black" d="M646.17,-611.23C664.42,-658.34 705.44,-795.44 719.12,-853.99"/>
<polygon fill="black" stroke="black" points="715.76,-854.97 721.35,-863.97 722.59,-853.44 715.76,-854.97"/>
</g>
<!-- hz&#45;&gt;zs -->
<g id="edge91" class="edge">
<title>hz&#45;&gt;zs</title>
<path fill="none" stroke="black" d="M636.99,-575.97C634.15,-528.29 626.12,-393.18 622.64,-334.63"/>
<polygon fill="black" stroke="black" points="626.12,-334.08 622.03,-324.31 619.13,-334.5 626.12,-334.08"/>
</g>
<!-- hz&#45;&gt;cs -->
<g id="edge92" class="edge">
<title>hz&#45;&gt;cs</title>
<path fill="none" stroke="black" d="M615.34,-583.62C589.76,-573.03 546.89,-555.28 510,-540 507.1,-538.8 504.09,-537.55 501.08,-536.3"/>
<polygon fill="black" stroke="black" points="502.13,-532.95 491.56,-532.35 499.45,-539.42 502.13,-532.95"/>
</g>
<!-- hz&#45;&gt;xj -->
<g id="edge93" class="edge">
<title>hz&#45;&gt;xj</title>
<path fill="none" stroke="black" d="M621.96,-579.37C610.84,-569.31 596.25,-554.86 586,-540 572.47,-520.39 561.47,-495.59 554.29,-477.16"/>
<polygon fill="black" stroke="black" points="557.5,-475.76 550.69,-467.65 550.95,-478.24 557.5,-475.76"/>
</g>
<!-- mz -->
<g id="node57" class="node">
<title>mz</title>
<ellipse fill="none" stroke="black" cx="845" cy="-522" rx="27" ry="18"/>
<text text-anchor="middle" x="845" y="-518.3" font-family="Times,serif" font-size="14.00">mz</text>
</g>
<!-- hz&#45;&gt;mz -->
<g id="edge94" class="edge">
<title>hz&#45;&gt;mz</title>
<path fill="none" stroke="black" d="M661.75,-584.97C698.71,-572.47 770.12,-548.32 812.05,-534.14"/>
<polygon fill="black" stroke="black" points="813.18,-537.46 821.53,-530.94 810.94,-530.82 813.18,-537.46"/>
</g>
<!-- sz&#45;&gt;vx -->
<g id="edge50" class="edge">
<title>sz&#45;&gt;vx</title>
<path fill="none" stroke="black" d="M1528.93,-721.81C1536.21,-712.55 1545.66,-700.52 1553.85,-690.09"/>
<polygon fill="black" stroke="black" points="1556.66,-692.18 1560.09,-682.16 1551.16,-687.86 1556.66,-692.18"/>
</g>
<!-- vx&#45;&gt;cd -->
<g id="edge105" class="edge">
<title>vx&#45;&gt;cd</title>
<path fill="none" stroke="black" d="M1575.78,-683.91C1586.64,-733.41 1617.76,-882.43 1628,-1008 1629.3,-1023.95 1632.7,-1028.71 1628,-1044 1624.71,-1054.69 1618.46,-1065.15 1612.07,-1073.92"/>
<polygon fill="black" stroke="black" points="1609.12,-1072.02 1605.75,-1082.07 1614.65,-1076.31 1609.12,-1072.02"/>
</g>
<!-- vm -->
<g id="node45" class="node">
<title>vm</title>
<ellipse fill="none" stroke="black" cx="1703" cy="-738" rx="27" ry="18"/>
<text text-anchor="middle" x="1703" y="-734.3" font-family="Times,serif" font-size="14.00">vm</text>
</g>
<!-- vm&#45;&gt;gh -->
<g id="edge53" class="edge">
<title>vm&#45;&gt;gh</title>
<path fill="none" stroke="black" d="M1698.4,-756.05C1689.07,-787.82 1665.27,-856.76 1624,-900 1607.69,-917.09 1584.67,-930.51 1565.99,-939.57"/>
<polygon fill="black" stroke="black" points="1564.27,-936.52 1556.68,-943.91 1567.22,-942.86 1564.27,-936.52"/>
</g>
<!-- vm&#45;&gt;vv -->
<g id="edge54" class="edge">
<title>vm&#45;&gt;vv</title>
<path fill="none" stroke="black" d="M1691.07,-721.81C1683.79,-712.55 1674.34,-700.52 1666.15,-690.09"/>
<polygon fill="black" stroke="black" points="1668.84,-687.86 1659.91,-682.16 1663.34,-692.18 1668.84,-687.86"/>
</g>
<!-- bq&#45;&gt;xc -->
<g id="edge58" class="edge">
<title>bq&#45;&gt;xc</title>
<path fill="none" stroke="black" d="M1115.19,-239.64C1034.13,-254.94 790,-306.83 790,-377 790,-451 790,-451 790,-451 790,-526.62 791.84,-558.23 845,-612 869.6,-636.88 884.39,-631.07 915,-648 958.22,-671.91 1007.27,-701.48 1037.16,-719.8"/>
<polygon fill="black" stroke="black" points="1035.45,-722.85 1045.8,-725.1 1039.11,-716.89 1035.45,-722.85"/>
</g>
<!-- zv -->
<g id="node47" class="node">
<title>zv</title>
<ellipse fill="none" stroke="black" cx="1217" cy="-162" rx="27" ry="18"/>
<text text-anchor="middle" x="1217" y="-158.3" font-family="Times,serif" font-size="14.00">zv</text>
</g>
<!-- bq&#45;&gt;zv -->
<g id="edge59" class="edge">
<title>bq&#45;&gt;zv</title>
<path fill="none" stroke="black" d="M1156.38,-218.83C1167.2,-208.87 1181.86,-195.37 1194.05,-184.14"/>
<polygon fill="black" stroke="black" points="1196.66,-186.49 1201.64,-177.14 1191.92,-181.34 1196.66,-186.49"/>
</g>
<!-- zv&#45;&gt;xc -->
<g id="edge75" class="edge">
<title>zv&#45;&gt;xc</title>
<path fill="none" stroke="black" d="M1220.36,-179.97C1225.31,-206.52 1234,-259.56 1234,-305 1234,-595 1234,-595 1234,-595 1234,-665.09 1147.74,-707.51 1098.47,-726.02"/>
<polygon fill="black" stroke="black" points="1097.06,-722.81 1088.86,-729.51 1099.45,-729.39 1097.06,-722.81"/>
</g>
<!-- qc -->
<g id="node50" class="node">
<title>qc</title>
<ellipse fill="none" stroke="black" cx="1255" cy="-90" rx="27" ry="18"/>
<text text-anchor="middle" x="1255" y="-86.3" font-family="Times,serif" font-size="14.00">qc</text>
</g>
<!-- zv&#45;&gt;qc -->
<g id="edge76" class="edge">
<title>zv&#45;&gt;qc</title>
<path fill="none" stroke="black" d="M1225.81,-144.76C1230.42,-136.28 1236.16,-125.71 1241.32,-116.2"/>
<polygon fill="black" stroke="black" points="1244.54,-117.61 1246.23,-107.15 1238.39,-114.27 1244.54,-117.61"/>
</g>
<!-- gz -->
<g id="node48" class="node">
<title>gz</title>
<ellipse fill="none" stroke="black" cx="583" cy="-738" rx="27" ry="18"/>
<text text-anchor="middle" x="583" y="-734.3" font-family="Times,serif" font-size="14.00">gz</text>
</g>
<!-- gz&#45;&gt;hz -->
<g id="edge61" class="edge">
<title>gz&#45;&gt;hz</title>
<path fill="none" stroke="black" d="M589.42,-720.43C598.85,-696.09 616.54,-650.4 627.77,-621.4"/>
<polygon fill="black" stroke="black" points="631.11,-622.49 631.45,-611.9 624.58,-619.96 631.11,-622.49"/>
</g>
<!-- gs -->
<g id="node49" class="node">
<title>gs</title>
<ellipse fill="none" stroke="black" cx="545" cy="-666" rx="27" ry="18"/>
<text text-anchor="middle" x="545" y="-662.3" font-family="Times,serif" font-size="14.00">gs</text>
</g>
<!-- gz&#45;&gt;gs -->
<g id="edge62" class="edge">
<title>gz&#45;&gt;gs</title>
<path fill="none" stroke="black" d="M574.19,-720.76C569.58,-712.28 563.84,-701.71 558.68,-692.2"/>
<polygon fill="black" stroke="black" points="561.61,-690.27 553.77,-683.15 555.46,-693.61 561.61,-690.27"/>
</g>
<!-- gs&#45;&gt;cs -->
<g id="edge103" class="edge">
<title>gs&#45;&gt;cs</title>
<path fill="none" stroke="black" d="M536.28,-648.71C523.11,-624.1 498.03,-577.24 482.49,-548.21"/>
<polygon fill="black" stroke="black" points="485.42,-546.26 477.62,-539.1 479.25,-549.57 485.42,-546.26"/>
</g>
<!-- gs&#45;&gt;hz -->
<g id="edge104" class="edge">
<title>gs&#45;&gt;hz</title>
<path fill="none" stroke="black" d="M562.49,-651.83C576.52,-641.27 596.42,-626.3 612.26,-614.37"/>
<polygon fill="black" stroke="black" points="614.7,-616.92 620.59,-608.11 610.49,-611.32 614.7,-616.92"/>
</g>
<!-- qc&#45;&gt;xc -->
<g id="edge63" class="edge">
<title>qc&#45;&gt;xc</title>
<path fill="none" stroke="black" d="M1258.36,-107.97C1263.31,-134.52 1272,-187.56 1272,-233 1272,-595 1272,-595 1272,-595 1272,-677.02 1160.13,-715.19 1100.87,-729.65"/>
<polygon fill="black" stroke="black" points="1099.74,-726.32 1090.8,-732.01 1101.33,-733.14 1099.74,-726.32"/>
</g>
<!-- qg -->
<g id="node51" class="node">
<title>qg</title>
<ellipse fill="none" stroke="black" cx="1282" cy="-18" rx="27" ry="18"/>
<text text-anchor="middle" x="1282" y="-14.3" font-family="Times,serif" font-size="14.00">qg</text>
</g>
<!-- qc&#45;&gt;qg -->
<g id="edge64" class="edge">
<title>qc&#45;&gt;qg</title>
<path fill="none" stroke="black" d="M1261.4,-72.41C1264.51,-64.34 1268.33,-54.43 1271.83,-45.35"/>
<polygon fill="black" stroke="black" points="1275.13,-46.55 1275.46,-35.96 1268.6,-44.03 1275.13,-46.55"/>
</g>
<!-- qg&#45;&gt;xc -->
<g id="edge72" class="edge">
<title>qg&#45;&gt;xc</title>
<path fill="none" stroke="black" d="M1287.53,-35.84C1295.69,-62.21 1310,-115.02 1310,-161 1310,-595 1310,-595 1310,-595 1310,-690.16 1169.93,-722.6 1101.61,-732.76"/>
<polygon fill="black" stroke="black" points="1101.1,-729.3 1091.69,-734.16 1102.08,-736.23 1101.1,-729.3"/>
</g>
<!-- dt&#45;&gt;sq -->
<g id="edge66" class="edge">
<title>dt&#45;&gt;sq</title>
<path fill="none" stroke="black" d="M652.37,-145.81C659.91,-136.55 669.7,-124.52 678.19,-114.09"/>
<polygon fill="black" stroke="black" points="681.06,-116.12 684.66,-106.16 675.63,-111.7 681.06,-116.12"/>
</g>
<!-- dt&#45;&gt;hz -->
<g id="edge67" class="edge">
<title>dt&#45;&gt;hz</title>
<path fill="none" stroke="black" d="M617.22,-171.99C575.26,-190.23 490,-235.79 490,-305 490,-379 490,-379 490,-379 490,-457.57 506.66,-485.24 563,-540 577.01,-553.62 594.8,-566.35 609.53,-575.91"/>
<polygon fill="black" stroke="black" points="607.93,-579.04 618.25,-581.44 611.68,-573.13 607.93,-579.04"/>
</g>
<!-- fz&#45;&gt;zs -->
<g id="edge70" class="edge">
<title>fz&#45;&gt;zs</title>
<path fill="none" stroke="black" d="M591.81,-360.76C596.42,-352.28 602.16,-341.71 607.32,-332.2"/>
<polygon fill="black" stroke="black" points="610.54,-333.61 612.23,-323.15 604.39,-330.27 610.54,-333.61"/>
</g>
<!-- fz&#45;&gt;hz -->
<g id="edge71" class="edge">
<title>fz&#45;&gt;hz</title>
<path fill="none" stroke="black" d="M587.26,-395.93C594.66,-425.29 610.38,-487.51 624,-540 626.18,-548.42 628.59,-557.58 630.79,-565.89"/>
<polygon fill="black" stroke="black" points="627.48,-567.05 633.42,-575.82 634.24,-565.26 627.48,-567.05"/>
</g>
<!-- qs&#45;&gt;gh -->
<g id="edge69" class="edge">
<title>qs&#45;&gt;gh</title>
<path fill="none" stroke="black" d="M1376.89,-539.7C1366.4,-565.89 1348,-618.46 1348,-665 1348,-811 1348,-811 1348,-811 1348,-853.5 1352.39,-870.51 1383,-900 1414.28,-930.14 1463.66,-943.23 1497.38,-948.86"/>
<polygon fill="black" stroke="black" points="1496.89,-952.32 1507.3,-950.38 1497.94,-945.4 1496.89,-952.32"/>
</g>
<!-- mr&#45;&gt;hz -->
<g id="edge96" class="edge">
<title>mr&#45;&gt;hz</title>
<path fill="none" stroke="black" d="M638,-791.85C638,-754.83 638,-667.18 638,-622.39"/>
<polygon fill="black" stroke="black" points="641.5,-622.23 638,-612.23 634.5,-622.23 641.5,-622.23"/>
</g>
<!-- mr&#45;&gt;gz -->
<g id="edge97" class="edge">
<title>mr&#45;&gt;gz</title>
<path fill="none" stroke="black" d="M626.07,-793.81C618.79,-784.55 609.34,-772.52 601.15,-762.09"/>
<polygon fill="black" stroke="black" points="603.84,-759.86 594.91,-754.16 598.34,-764.18 603.84,-759.86"/>
</g>
<!-- pg -->
<g id="node58" class="node">
<title>pg</title>
<ellipse fill="none" stroke="black" cx="1741" cy="-810" rx="27" ry="18"/>
<text text-anchor="middle" x="1741" y="-806.3" font-family="Times,serif" font-size="14.00">pg</text>
</g>
<!-- lk&#45;&gt;pg -->
<g id="edge87" class="edge">
<title>lk&#45;&gt;pg</title>
<path fill="none" stroke="black" d="M1770.19,-864.76C1765.58,-856.28 1759.84,-845.71 1754.68,-836.2"/>
<polygon fill="black" stroke="black" points="1757.61,-834.27 1749.77,-827.15 1751.46,-837.61 1757.61,-834.27"/>
</g>
<!-- mz&#45;&gt;mf -->
<g id="edge85" class="edge">
<title>mz&#45;&gt;mf</title>
<path fill="none" stroke="black" d="M859.98,-506.83C870.51,-496.87 884.78,-483.37 896.66,-472.14"/>
<polygon fill="black" stroke="black" points="899.19,-474.56 904.05,-465.14 894.38,-469.47 899.19,-474.56"/>
</g>
<!-- pg&#45;&gt;gh -->
<g id="edge99" class="edge">
<title>pg&#45;&gt;gh</title>
<path fill="none" stroke="black" d="M1737.56,-827.9C1732.64,-847.88 1721.66,-880.84 1700,-900 1663.7,-932.1 1607.83,-944.78 1571.1,-949.78"/>
<polygon fill="black" stroke="black" points="1570.31,-946.35 1560.82,-951.04 1571.17,-953.29 1570.31,-946.35"/>
</g>
<!-- pg&#45;&gt;vm -->
<g id="edge100" class="edge">
<title>pg&#45;&gt;vm</title>
<path fill="none" stroke="black" d="M1732.19,-792.76C1727.58,-784.28 1721.84,-773.71 1716.68,-764.2"/>
<polygon fill="black" stroke="black" points="1719.61,-762.27 1711.77,-755.15 1713.46,-765.61 1719.61,-762.27"/>
</g>
<!-- jk&#45;&gt;cn -->
<g id="edge108" class="edge">
<title>jk&#45;&gt;cn</title>
<path fill="none" stroke="black" d="M245.24,-684.19C245.58,-708.42 246.21,-752.89 246.62,-781.68"/>
<polygon fill="black" stroke="black" points="243.12,-781.92 246.76,-791.87 250.12,-781.82 243.12,-781.92"/>
</g>
<!-- jk&#45;&gt;fb -->
<g id="edge109" class="edge">
<title>jk&#45;&gt;fb</title>
<path fill="none" stroke="black" d="M236.19,-648.76C231.58,-640.28 225.84,-629.71 220.68,-620.2"/>
<polygon fill="black" stroke="black" points="223.61,-618.27 215.77,-611.15 217.46,-621.61 223.61,-618.27"/>
</g>
</g>
</svg>
